<?xml version="1.0" encoding="utf-8"?>
<!-- Generator: Adobe Illustrator 17.1.0, SVG Export Plug-In . SVG Version: 6.00 Build 0)  -->
<!DOCTYPE svg PUBLIC "-//W3C//DTD SVG 1.1//EN" "http://www.w3.org/Graphics/SVG/1.1/DTD/svg11.dtd">
<svg version="1.1" id="Layer_1" xmlns="http://www.w3.org/2000/svg" xmlns:xlink="http://www.w3.org/1999/xlink" x="0px" y="0px"
	 viewBox="0 0 100 100" enable-background="new 0 0 100 100" xml:space="preserve">
<path fill="#231F20" d="M86.5,51.3c0,0,0.2-2.7-2.4-3.8c-6.1-2.7-10.4,3.8-11,4.8c0,0,0,0-0.1,0c-0.1-1.5-0.5-3-1.2-4.4
	c-4.1-8.7-6.9-7.5-18.6-21.7C41.6,12.1,48.6,0,48.6,0c-9.4,4.5-8.9,15.8-8.9,15.8c-2.5-3.3-5.2-3.9-5.2-3.9
	c-1.9,6.6,0.7,12.8,0.7,12.8c-3-2.2-6.2-1.4-6.2-1.4c0,3.2,3,8.9,3.2,9.3c-15.1-5.8-15.7-18.4-15.7-18.4c-5.4,8.9,1.3,18.1,1.3,18.1
	c-3.9-1.4-6.5-0.3-6.5-0.3c2,6.5,7.6,10.3,7.6,10.3c-3.7-0.1-5.9,2.3-5.9,2.3c1.8,2.8,7.8,6,7.8,6c-3.1,1.8-5.5,6.2-5.5,6.2
	c3.2,0.7,8,0.6,11,0.4c-2.9,2.9-5.6,9.5-5.6,9.5c5.5-0.9,11.7-4.2,11.7-4.2c-1.8,5.1-1.3,12.4-1.3,12.4s5.5-5.4,7-10.5
	c0,0-0.1,5.2,1.2,8.4c-1.5,0.9-3.2,1.9-5.1,3.2c-10.8,7.2-15,23.6-15,23.6c5-7.5,8.9-9.4,15.7-11.2c6.8-1.8,17.4-0.4,27.9-6
	c10.5-5.6,13.6-14,17.1-21c3.5-7,9.9-8.4,9.9-8.4C88.3,51.3,86.5,51.3,86.5,51.3z M65.3,57.2c-0.9,0.2-1.7-0.3-1.9-1.2h0
	c-1.2-5-4.3-9.6-11.3-11.6C30.5,38.2,24.6,39.7,17.3,24c8.2,15.2,20.9,13.6,36,17.7C61.5,44,65,49.4,66.4,55c0,0.1,0.1,0.1,0.1,0.2
	C66.7,56.1,66.1,57,65.3,57.2z M80.7,52.7c-0.7,0-1.3-0.6-1.3-1.3s0.6-1.3,1.3-1.3s1.3,0.6,1.3,1.3S81.4,52.7,80.7,52.7z"/>
</svg>
