<?xml version="1.0" encoding="utf-8"?>
<!-- Generator: Adobe Illustrator 17.1.0, SVG Export Plug-In . SVG Version: 6.00 Build 0)  -->
<!DOCTYPE svg PUBLIC "-//W3C//DTD SVG 1.1//EN" "http://www.w3.org/Graphics/SVG/1.1/DTD/svg11.dtd">
<svg version="1.1" id="Layer_1" xmlns="http://www.w3.org/2000/svg" xmlns:xlink="http://www.w3.org/1999/xlink" x="0px" y="0px"
	 viewBox="0 0 311.5 92.5" enable-background="new 0 0 311.5 92.5" xml:space="preserve">
<g>
	<path d="M56.5,91.5c-0.7,0-1.5-0.6-1.5-1.5V34.7c0-0.7-0.6-1.3-1.4-1.3H43c-0.6,0-1.4-0.8-1.4-1.5V13c0-0.6,0.3-1.1,1-1.1h45.4
		c0.7,0,1.4,0.4,1.4,1.3v18.7c0,0.8-0.6,1.5-1.5,1.5H77.2c-0.7,0-1.3,0.5-1.3,1.5v55.2c0,0.7-0.6,1.4-1.5,1.4H56.5z"/>
	<path d="M94.3,91.5c-0.8,0-1.3-0.5-1.3-1.3V13.6c0-0.8,0.5-1.6,1.4-1.6h19c16.9,0,26.8,10.7,26.8,30v19.7
		c0,17.2-9.6,29.8-26.1,29.8H94.3z M118.9,35.8c0-1.1-0.3-1.9-1-2.4c-0.4-0.3-1.3-0.6-1.8-0.6c-0.4,0-0.6,0.3-0.6,1v35.2
		c0,0.6,0.2,0.8,0.6,0.8c0.6,0,2.8,0,2.8-3.1V35.8z"/>
	<path d="M143.2,36.1c0-16.4,10.3-24.4,22-24.4c11.8,0,22,8,22,24.4v31.4c0,16.3-10.4,24.3-22,24.3c-11.7,0-22-7.8-22-24.3V36.1z
		 M163.5,67.2c0,1.6,0.5,2.8,1.7,2.8s1.7-1.2,1.7-2.8V36.5c0-1.4-0.5-2.9-1.7-2.9s-1.7,1.4-1.7,2.9V67.2z"/>
	<path d="M190.9,13.4c0-0.6,0.6-1.4,1.4-1.4h37.6c0.6,0,1.1,0.5,1.1,1.2v19.1c0,0.6-0.5,1.1-1.2,1.1h-17.7c-0.4,0-0.7,0.3-0.7,0.7
		V40c0,0.4,0.4,0.7,0.7,0.7h8.4c0.4,0,0.7,0.3,0.7,0.7v19.3c0,0.5-0.4,1-0.8,1h-8.6c-0.4,0-0.7,0.3-0.7,0.8v6.3
		c0,0.4,0.3,0.7,0.6,0.7H230c0.7,0,1.2,0.5,1.2,1.1v19.7c0,0.6-0.5,1.2-1.2,1.2H192c-0.6,0-1.2-0.6-1.2-1.4V13.4z"/>
	<path d="M238,36.9c0-0.3-0.3-0.6-0.6-0.6c-2.8,0-3.1,0-3.1-0.7V13.9c0-0.4,0.4-0.8,1-0.8h23.2c0.4,0,0.8,0.4,0.8,0.8v76.7
		c0,0.4-0.3,0.8-0.7,0.8h-19.8c-0.3,0-0.7-0.3-0.7-0.7V36.9z"/>
	<path d="M282.3,76.7c0-0.3-0.2-0.5-0.5-0.5h-19.1c-0.3,0-0.7-0.3-0.7-0.7v-17c0-0.4,0.2-1,0.3-1.3l23.6-43.4
		c0.2-0.4,0.7-0.8,1.2-0.8h15.7c0.4,0,0.8,0.4,0.8,0.8v42.3c0,0.8,0.4,1.7,1.9,1.7c1.7,0,3.1,0.2,3.1,1.2v16.3
		c0,0.7-1.4,0.8-2.5,0.8s-2.4,0.6-2.4,1.4v13.1c0,0.4-0.3,0.7-0.8,0.7h-19.7c-0.3,0-0.7-0.3-0.7-0.7V76.7z M277.6,57.3
		c-0.2,0.5,0.2,0.5,4.1,0.5c0.3,0,0.6-0.2,0.6-0.5V50c0-0.4-0.2-0.6-0.4-0.6c-0.2,0-0.4,0.2-0.6,0.6L277.6,57.3z"/>
</g>
<g>
	<path stroke="#FFFFFF" stroke-width="6" stroke-miterlimit="10" d="M32.4,0c9.1,21.2-43.3,31-25.1,73.5c6.8,15.9,14.4,19,14.4,19
		l5.3-2.3c0,0-10.2-1.9-17-17.8C5.4,61.7,24.7,40.9,24.7,40.9S8.4,61.5,13.1,72.4C49.2,63.2,51.1,15.9,32.4,0z"/>
	<path stroke="#FFFFFF" stroke-miterlimit="10" d="M32.4,0c9.1,21.2-43.3,31-25.1,73.5c6.8,15.9,14.4,19,14.4,19l5.3-2.3
		c0,0-10.2-1.9-17-17.8C5.4,61.7,24.7,40.9,24.7,40.9S8.4,61.5,13.1,72.4C49.2,63.2,51.1,15.9,32.4,0z"/>
</g>
</svg>
