<?xml version="1.0" encoding="utf-8"?>
<!-- Generator: Adobe Illustrator 17.1.0, SVG Export Plug-In . SVG Version: 6.00 Build 0)  -->
<!DOCTYPE svg PUBLIC "-//W3C//DTD SVG 1.1//EN" "http://www.w3.org/Graphics/SVG/1.1/DTD/svg11.dtd">
<svg version="1.1" id="Layer_1" xmlns="http://www.w3.org/2000/svg" xmlns:xlink="http://www.w3.org/1999/xlink" x="0px" y="0px"
	 viewBox="0 0 313.5 111.5" enable-background="new 0 0 313.5 111.5" xml:space="preserve">
<g>
	<path fill="#FFFFFF" d="M59.2,104.8c-0.7,0-1.5-0.6-1.5-1.5V47.9c0-0.7-0.6-1.3-1.4-1.3H45.7c-0.6,0-1.4-0.8-1.4-1.5V26.3
		c0-0.6,0.3-1.1,1-1.1h45.4c0.7,0,1.4,0.4,1.4,1.3v18.7c0,0.8-0.6,1.5-1.5,1.5H79.9c-0.7,0-1.3,0.5-1.3,1.5v55.2
		c0,0.7-0.6,1.4-1.5,1.4H59.2z"/>
	<path fill="#FFFFFF" d="M97,104.8c-0.8,0-1.3-0.5-1.3-1.3V26.8c0-0.8,0.5-1.6,1.4-1.6h19c16.9,0,26.8,10.7,26.8,30V75
		c0,17.2-9.6,29.8-26.1,29.8H97z M121.6,49.1c0-1.1-0.3-1.9-1-2.4c-0.4-0.3-1.3-0.6-1.8-0.6c-0.4,0-0.6,0.3-0.6,1v35.2
		c0,0.6,0.2,0.8,0.6,0.8c0.6,0,2.8,0,2.8-3.1V49.1z"/>
	<path fill="#FFFFFF" d="M145.9,49.4c0-16.4,10.3-24.4,22-24.4c11.8,0,22,8,22,24.4v31.4c0,16.3-10.4,24.3-22,24.3
		c-11.7,0-22-7.8-22-24.3V49.4z M166.2,80.5c0,1.6,0.5,2.8,1.7,2.8s1.7-1.2,1.7-2.8V49.7c0-1.4-0.5-2.9-1.7-2.9s-1.7,1.4-1.7,2.9
		V80.5z"/>
	<path fill="#FFFFFF" d="M193.6,26.6c0-0.6,0.6-1.4,1.4-1.4h37.6c0.6,0,1.1,0.5,1.1,1.2v19.1c0,0.6-0.5,1.1-1.2,1.1h-17.7
		c-0.4,0-0.7,0.3-0.7,0.7v5.9c0,0.4,0.4,0.7,0.7,0.7h8.4c0.4,0,0.7,0.3,0.7,0.7V74c0,0.5-0.4,1-0.8,1h-8.6c-0.4,0-0.7,0.3-0.7,0.8
		v6.3c0,0.4,0.3,0.7,0.6,0.7h18.3c0.7,0,1.2,0.5,1.2,1.1v19.7c0,0.6-0.5,1.2-1.2,1.2h-37.9c-0.6,0-1.2-0.6-1.2-1.4V26.6z"/>
	<path fill="#FFFFFF" d="M240.7,50.2c0-0.3-0.3-0.6-0.6-0.6c-2.8,0-3.1,0-3.1-0.7V27.2c0-0.4,0.4-0.8,1-0.8h23.2
		c0.4,0,0.8,0.4,0.8,0.8v76.7c0,0.4-0.3,0.8-0.7,0.8h-19.8c-0.3,0-0.7-0.3-0.7-0.7V50.2z"/>
	<path fill="#FFFFFF" d="M285,90c0-0.3-0.2-0.5-0.5-0.5h-19.1c-0.3,0-0.7-0.3-0.7-0.7v-17c0-0.4,0.2-1,0.3-1.3l23.6-43.4
		c0.2-0.4,0.7-0.8,1.2-0.8h15.7c0.4,0,0.8,0.4,0.8,0.8v42.3c0,0.8,0.4,1.7,1.9,1.7c1.7,0,3.1,0.2,3.1,1.2v16.3
		c0,0.7-1.4,0.8-2.5,0.8s-2.4,0.6-2.4,1.4V104c0,0.4-0.3,0.7-0.8,0.7h-19.7c-0.3,0-0.7-0.3-0.7-0.7V90z M280.3,70.6
		c-0.2,0.5,0.2,0.5,4.1,0.5c0.3,0,0.6-0.2,0.6-0.5v-7.3c0-0.4-0.2-0.6-0.4-0.6c-0.2,0-0.4,0.2-0.6,0.6L280.3,70.6z"/>
</g>
<g>
	<path fill="#FFFFFF" stroke="#03BDCB" stroke-width="6" stroke-miterlimit="10" d="M35.1,13.3c9.1,21.2-43.3,31-25.1,73.5
		c6.8,15.9,14.4,19,14.4,19l5.3-2.3c0,0-10.2-1.9-17-17.8C8.1,75,27.4,54.2,27.4,54.2S11.1,74.7,15.8,85.6
		C51.9,76.5,53.8,29.2,35.1,13.3z"/>
	<path fill="#FFFFFF" d="M35.1,13.3c9.1,21.2-43.3,31-25.1,73.5c6.8,15.9,14.4,19,14.4,19l5.3-2.3c0,0-10.2-1.9-17-17.8
		C8.1,75,27.4,54.2,27.4,54.2S11.1,74.7,15.8,85.6C51.9,76.5,53.8,29.2,35.1,13.3z"/>
</g>
</svg>
