<?xml version="1.0" encoding="utf-8"?>
<!-- Generator: Adobe Illustrator 17.1.0, SVG Export Plug-In . SVG Version: 6.00 Build 0)  -->
<!DOCTYPE svg PUBLIC "-//W3C//DTD SVG 1.1//EN" "http://www.w3.org/Graphics/SVG/1.1/DTD/svg11.dtd">
<svg version="1.1" id="Layer_1" xmlns="http://www.w3.org/2000/svg" xmlns:xlink="http://www.w3.org/1999/xlink" x="0px" y="0px"
	 viewBox="0 0 1008 612" enable-background="new 0 0 1008 612" xml:space="preserve">
<text transform="matrix(1 0 0 1 373.1905 341.9745)" font-family="'PoplarStd'" font-size="106">TDOE14</text>
<g>
	<path stroke="#FFFFFF" stroke-width="6" stroke-miterlimit="10" d="M365.5,250.5c9.1,21.2-43.3,31-25.1,73.5
		c6.8,15.9,14.4,19,14.4,19l5.3-2.3c0,0-10.2-1.9-17-17.8c-4.5-10.6,14.8-31.4,14.8-31.4s-16.3,20.5-11.6,31.4
		C382.3,313.7,384.2,266.4,365.5,250.5z"/>
	<path stroke="#FFFFFF" stroke-miterlimit="10" d="M365.5,250.5c9.1,21.2-43.3,31-25.1,73.5c6.8,15.9,14.4,19,14.4,19l5.3-2.3
		c0,0-10.2-1.9-17-17.8c-4.5-10.6,14.8-31.4,14.8-31.4s-16.3,20.5-11.6,31.4C382.3,313.7,384.2,266.4,365.5,250.5z"/>
</g>
</svg>
